# xmcd
#
# Track frame offsets:
#	150
#	16208
#	38095
#	55991
#	73252
#	91283
#	105962
#	123669
#	139790
#	158172
#	176851
#	192911
#	208238
#	222752
#	241241
#	257773
#	273353
#	288100
#	301711
#	322500
#
# Disc length: 4571 seconds
#
# Revision: 0
# Processed by: cddbd v1.5.1PL0 Copyright (c) Steve Scherf et al.
# Submitted via: audiograbber 1.83.01
#
DISCID=1811d914
DTITLE=Various Artist - 50 на 50 (Volume 2)
DYEAR=2004
DGENRE=Pop
TTITLE0=Bennasi Bros. feat.Sandy - Illusion
TTITLE1=Tarkan - Dudu (Remix)
TTITLE2=Brirney Spears - Everytime
TTITLE3=Anastacia - Left Outside Alone
TTITLE4=Sting - Stolen Car
TTITLE5=J-Five - Modern Times
TTITLE6=Sugarbabes - In The Middle
TTITLE7=O-Zone (Haiducii) - Drogastea Din Tea
TTITLE8=Pink - Last To Know
TTITLE9=PPK - Whiteman Horsey
TTITLE10=Ирина Билык - Любовь.Яд
TTITLE11=Глюкоза and Верка Сердючка - Жениха Хотела
TTITLE12=Никита Малинин - Котёнок (Remix)
TTITLE13=Серёга - Чёрный Бумер
TTITLE14=Катя Лель - Стоять - Бояться
TTITLE15=ТаТу - Защищаться Очками
TTITLE16=Алла Пугачёва and Максим Галкин - Кафешка
TTITLE17=Планка - Забыла Не Помню
TTITLE18=Корни - Ты Узнаешь Её
TTITLE19=Валерий Меладзе и ВИА Гра - Притяжения Больше Нет
EXTD=Сборник
EXTT0=
EXTT1=
EXTT2=
EXTT3=
EXTT4=
EXTT5=
EXTT6=
EXTT7=
EXTT8=
EXTT9=
EXTT10=
EXTT11=
EXTT12=
EXTT13=
EXTT14=
EXTT15=
EXTT16=
EXTT17=
EXTT18=
EXTT19=
PLAYORDER=
